<svg xmlns="http://www.w3.org/2000/svg" xmlns:xlink="http://www.w3.org/1999/xlink"><defs><style>
    .sprite-symbol-usage {display: none;}
    .sprite-symbol-usage:target {display: inline;}
  </style><symbol fill="none" viewBox="0 0 51 51" id="advantages_01"><path d="M49.424 19.636H19.799a.832.832 0 0 0-.834.827v1.116H1.84a.854.854 0 0 0-.791.537c-.125.33 0 .702.25.909l2 1.611c2.333 1.943 4.958 3.389 7.75 4.38a25.821 25.821 0 0 0 8.666 1.488c2.084.248 3.667 2.066 3.667 4.174v1.24c0 1.61-.792 3.099-2.125 4.008l-8.125 5.537-.042.041c-.041.041-.083.041-.083.083l-.042.041c0 .041-.041.041-.041.083 0 .041-.042.041-.042.082 0 .042-.042.042-.042.083s0 .041-.041.083c0 .041 0 .041-.042.082v3.761c0 .454.375.826.833.826h33.875a.832.832 0 0 0 .834-.826v-3.595a.81.81 0 0 0-.375-.703l-8.125-5.537a4.835 4.835 0 0 1-2.125-4.008c0-4.752 3.041-8.926 7.583-10.33l4.417-1.365c.333-.124.583-.413.583-.785v-3.016a.832.832 0 0 0-.833-.827zm-.834 3.224l-3.833 1.198c-5.25 1.611-8.75 6.405-8.75 11.9 0 2.15 1.083 4.133 2.833 5.373l7.792 5.289v2.355H14.424v-1.942h24.833a.832.832 0 0 0 .833-.826.832.832 0 0 0-.833-.827H16.299l5.916-4.008c1.792-1.198 2.834-3.223 2.834-5.372v-1.24c0-2.975-2.209-5.496-5.167-5.826h-.083c-2.792 0-5.542-.455-8.167-1.405s-5.083-2.314-7.25-4.091l-.208-.165h14.791v2.396a.833.833 0 0 0 1.667 0v-4.38H48.59v1.571zm-27.5-5.496h6.417c1.167 0 2.125-.95 2.125-2.108v-5.248h19.833a.832.832 0 0 0 .834-.826.832.832 0 0 0-.834-.827H29.59V3.107C29.59 1.95 28.632 1 27.465 1H21.09c-1.166 0-2.125.95-2.125 2.107v12.19c0 1.116.959 2.067 2.125 2.067zm-.458-14.257a.46.46 0 0 1 .458-.454h6.417a.46.46 0 0 1 .458.454v12.19a.46.46 0 0 1-.458.455H21.09a.46.46 0 0 1-.458-.454V3.107z" fill="#CC262A" stroke="#CC262A" stroke-width=".5" /></symbol><symbol fill="none" viewBox="0 0 48 35" id="advantages_02"><path d="M22.795 4.921c0-3.113-5.725-4.507-11.398-4.507S0 1.804 0 4.921v2.777c0 3.114 5.724 4.507 11.397 4.507s11.398-1.393 11.398-4.507V4.921zM20.24 7.658c-.296.587-3.278 1.996-8.844 1.996-5.566 0-8.563-1.409-8.844-1.996v-2.7c.296-.587 3.278-1.996 8.844-1.996 5.566 0 8.548 1.41 8.844 1.996v2.7zm2.554 7.565c0 3.113-5.725 4.507-11.398 4.507S0 18.335 0 15.222v-2.318a1.277 1.277 0 1 1 2.553 0v2.277c.28.587 3.273 1.996 8.844 1.996s8.548-1.41 8.844-1.996v-2.277a1.277 1.277 0 1 1 2.554 0v2.318l-.001.001zm0 7.523c0 3.114-5.725 4.507-11.398 4.507S0 25.86 0 22.74v-2.312a1.277 1.277 0 1 1 2.553 0v2.276c.28.582 3.273 1.976 8.844 1.976s8.548-1.41 8.844-1.996v-2.256a1.277 1.277 0 1 1 2.554 0v2.317l-.001.001zM47.54 12.43c0-3.114-5.724-4.507-11.397-4.507S24.745 9.326 24.745 12.43v2.776c0 3.114 5.725 4.507 11.398 4.507S47.54 18.32 47.54 15.206V12.43zm-2.553 2.735c-.28.603-3.273 2.012-8.844 2.012s-8.548-1.41-8.844-1.996v-2.7c.296-.587 3.278-1.996 8.844-1.996 5.566 0 8.563 1.434 8.844 1.996v2.684zm2.553 7.565c0 3.113-5.724 4.507-11.397 4.507S24.745 25.86 24.745 22.74v-2.312a1.277 1.277 0 1 1 2.554 0v2.276c.296.582 3.278 1.976 8.844 1.976 5.566 0 8.563-1.394 8.844-1.976v-2.276a1.277 1.277 0 1 1 2.553 0v2.302zM27.3 27.946v2.277c.296.587 3.278 1.996 8.844 1.996 5.566 0 8.563-1.414 8.844-1.996v-2.277a1.277 1.277 0 1 1 2.553 0v2.318c0 3.113-5.724 4.507-11.397 4.507s-11.398-1.414-11.398-4.507v-2.318a1.277 1.277 0 1 1 2.554 0zm-15.902 6.825C5.724 34.771 0 33.357 0 30.264v-2.318a1.277 1.277 0 1 1 2.553 0v2.277c.28.582 3.273 1.996 8.844 1.996s8.548-1.414 8.844-1.996v-2.277a1.277 1.277 0 1 1 2.554 0v2.318c0 3.093-5.725 4.507-11.398 4.507h.001z" fill="#CC262A" /></symbol><symbol fill="none" viewBox="0 0 40 40" id="advantages_03"><path d="M14.531 40h3.125V0h-3.125v19.52L7.05 11.949l-2.223 2.197 4.241 4.293H0v3.125h9.037L4.832 25.77l2.21 2.208 7.49-7.493V40zM40 21.562h-9.04l4.207 4.208-2.21 2.21-7.488-7.489V40h-3.125V0h3.125v19.516l7.482-7.568 2.223 2.197-4.244 4.293H40v3.125z" fill="#CC262A" /></symbol><symbol fill="none" viewBox="0 0 40 45" id="advantages_04"><path d="M20 38.653c1.282 0 2.534-.129 3.751-.352l8.127 6.284V34.85C36.797 31.33 40 25.698 40 19.327 40 8.651 31.045 0 20 0S0 8.652 0 19.326C0 30 8.955 38.654 20 38.654zm0-35.866c9.476 0 17.184 7.418 17.184 16.54 0 5.264-2.535 10.1-6.955 13.264l-1.166.834v5.449l-3.579-2.77-1-.771-1.247.228a18.01 18.01 0 0 1-3.237.306c-9.476 0-17.184-7.42-17.184-16.54 0-9.122 7.708-16.54 17.184-16.54z" fill="#CC262A" /><path d="M29.224 12.918l-2.312-1.589-8.701 12.4-5.52-4.459-1.784 2.158 7.88 6.364 10.437-14.874z" fill="#CC262A" /></symbol><symbol fill="none" viewBox="0 0 43 46" id="advantages_05"><path d="M43 10.844a1.17 1.17 0 0 0-.274-.73 1.202 1.202 0 0 0-.676-.405L21.99.127a1.136 1.136 0 0 0-1.043 0L.67 9.8c-.196.091-.363.234-.481.413a1.137 1.137 0 0 0-.189.6v24.331c0 .218.062.432.18.617.12.185.289.332.49.425l20.246 9.69h.888V46h.093l20.355-9.705c.2-.099.368-.25.486-.436.118-.187.182-.402.184-.622V10.874l.078-.03zM21.508 2.457l17.598 8.402-6.478 3.066-17.646-8.37 6.526-3.098zm0 16.865L3.878 10.86l8.394-4.017 17.6 8.402-8.364 4.078zM2.368 12.73l17.878 8.555v21.649L2.367 34.409v-21.68zm20.245 30.204v-21.65l8.41-4.016v5.734c0 .31.125.606.347.824a1.193 1.193 0 0 0 1.674 0c.222-.218.347-.515.347-.824v-6.869L40.6 12.7v21.68l-17.988 8.555z" fill="#CC262A" /></symbol><symbol fill="none" viewBox="0 0 33 49" id="advantages_06"><path d="M16.5 0a4.415 4.415 0 0 0-4.4 4.4v1.1H8.387A2.36 2.36 0 0 0 6.05 7.838V8.8H1.1C.501 8.8 0 9.404 0 9.9v37.4c0 .576.524 1.1 1.1 1.1h30.8c.576 0 1.1-.524 1.1-1.1V9.9c0-.576-.524-1.1-1.1-1.1h-4.95v-.963A2.36 2.36 0 0 0 24.613 5.5H20.9V4.4c0-2.419-1.981-4.4-4.4-4.4zm0 2.2c1.238 0 2.2.962 2.2 2.2v2.2c0 .576.524 1.1 1.1 1.1h4.813c.1 0 .137.037.137.138v4.125c0 .1-.037.137-.137.137H8.387c-.1 0-.137-.037-.137-.137V7.838c0-.101.037-.138.137-.138H13.2c.576 0 1.1-.524 1.1-1.1V4.4c0-1.238.962-2.2 2.2-2.2zM2.2 11h3.85v.963A2.36 2.36 0 0 0 8.387 14.3h16.226a2.36 2.36 0 0 0 2.337-2.338V11h3.85v35.2H2.2V11zm3.3 8.8c.019.576.523 1.1 1.1 1.1h19.8c.581.008 1.116-.519 1.116-1.1 0-.581-.535-1.108-1.116-1.1H6.6c-.633 0-1.117.59-1.1 1.1zm0 6.6c.019.576.523 1.1 1.1 1.1h19.8c.581.008 1.116-.519 1.116-1.1 0-.581-.535-1.108-1.116-1.1H6.6c-.633 0-1.117.59-1.1 1.1zm19.99 5.431l-4.693 7.03-1.805-2.166a1.022 1.022 0 0 0-.842-.395c-.779.008-1.1.584-1.1 1.1 0 .259.08.516.258.705l2.75 3.3a1.101 1.101 0 0 0 .842.395c.353-.007.714-.203.91-.498l5.5-8.25c.121-.173.194-.381.192-.592-.004-.722-.531-1.11-1.102-1.11-.4 0-.742.228-.91.481zM5.5 33c.018.576.523 1.1 1.1 1.1h8.8c.581.008 1.116-.519 1.116-1.1 0-.581-.535-1.108-1.116-1.1H6.6c-.638 0-1.116.574-1.1 1.1z" fill="#CC262A" /></symbol><symbol fill="none" viewBox="0 0 25 42" id="arrow"><path d="M23 40L4 21 23 2" stroke="currentColor" stroke-width="5" /></symbol><symbol fill="none" viewBox="0 0 52 52" id="call"><path d="M31.87 40.867l-4.833-3.717c-1.54-1.169-3.718-1.01-5.098.318l-2.019 2.018a10.374 10.374 0 0 1-4.195-2.07l-.16-.16c-.478-.372-.902-.85-1.327-1.328l-.16-.16c-1.009-1.22-1.752-2.655-2.07-4.195l2.017-2.018c1.381-1.38 1.54-3.559.32-5.099l-3.719-4.833c-1.168-1.487-3.133-2.018-4.886-1.274l-.53.265C2.13 19.995.056 23.13.003 26.53c-.106 5.79 1.86 11.418 5.577 15.826l.265.266c.903 1.115 1.965 2.124 3.027 3.027l.266.266a23.823 23.823 0 0 0 15.35 5.576h.477c3.4-.053 6.48-2.124 7.86-5.258l.266-.53c.796-1.7.265-3.718-1.222-4.834zm-1.168 3.771l-.266.531c-.956 2.178-3.133 3.612-5.523 3.665-5.152.106-10.144-1.647-14.074-4.993l-.266-.265c-.956-.85-1.912-1.753-2.709-2.709l-.212-.212c-3.293-3.93-5.099-8.923-4.94-14.074.054-2.39 1.488-4.568 3.665-5.524l.531-.265c.16-.107.372-.107.585-.107.425 0 .85.213 1.115.585l3.718 4.833a1.214 1.214 0 0 1-.107 1.593l-2.496 2.496c-.318.32-.425.744-.372 1.17a12.656 12.656 0 0 0 2.815 6.106l.16.16c.478.584 1.062 1.115 1.646 1.646l.16.16a12.654 12.654 0 0 0 6.107 2.814c.425.053.85-.053 1.168-.372l2.497-2.496a1.214 1.214 0 0 1 1.593-.106l4.833 3.718c.478.371.637 1.062.372 1.646zM46.688 4.86c-6.48-6.479-16.995-6.479-23.475 0-5.258 5.258-6.373 13.278-2.815 19.704l-1.274 4.462c-.266.956 0 2.018.69 2.708.69.69 1.753.956 2.71.69l4.46-1.274a16.508 16.508 0 0 0 7.967 2.071c4.302 0 8.55-1.646 11.737-4.886 6.426-6.48 6.426-16.995 0-23.474zm-1.912 21.616C40.262 30.99 33.251 31.84 27.781 28.6c-.213-.106-.425-.213-.69-.213-.107 0-.266 0-.372.054l-4.993 1.433h-.106c-.053-.053-.053-.053 0-.106l1.434-4.992a1.251 1.251 0 0 0-.16-1.062c-3.292-5.47-2.39-12.48 2.125-16.996 5.47-5.364 14.34-5.364 19.757.054 5.417 5.417 5.417 14.286 0 19.703v.001zm-8.498-9.878c0 .743-.584 1.328-1.327 1.328a1.316 1.316 0 0 1-1.328-1.328c0-.744.584-1.328 1.328-1.328.743 0 1.327.638 1.327 1.328zm-5.15 0c0 .743-.586 1.328-1.329 1.328a1.316 1.316 0 0 1-1.328-1.328c0-.744.584-1.328 1.328-1.328.743 0 1.328.638 1.328 1.328zm10.25 0c0 .743-.585 1.328-1.329 1.328a1.316 1.316 0 0 1-1.328-1.328c0-.744.585-1.328 1.328-1.328.744 0 1.328.638 1.328 1.328z" fill="#CC262A" /></symbol><symbol fill="none" viewBox="0 0 33 36" id="callback"><path d="M32.46 11.96C30.155 3.378 21.13-1.713 12.302.529 3.473 2.808-1.761 11.58.543 20.126c1.095 4.063 3.712 7.329 7.07 9.418L3.278 36l17.424-4.443c8.788-2.24 14.063-11.014 11.758-19.596h-.001zM18.396 23.316c-6.836-3.268-8.595-9.115-8.868-11.28-.273-2.126 3.555-4.026 3.555-4.026l2.422 3.95s-2.578 1.329-2.227 2.088c1.876 3.912 4.377 5.318 4.377 5.318.781.303 2.577-1.634 2.577-1.634l3.438 3.153s-2.852 3.569-5.274 2.43z" fill="#CC262A" /></symbol><symbol fill="none" viewBox="0 0 26 20" id="check"><path d="M3 8.522L10.5 17 23 2" stroke="#CC262A" stroke-width="6" stroke-linejoin="round" /></symbol><symbol fill="none" viewBox="0 0 22 22" id="close"><path fill-rule="evenodd" clip-rule="evenodd" d="M21.211 2.755L19.157.701l-8.22 8.219L2.719.7.664 2.756l8.219 8.22-8.22 8.218 2.056 2.055 8.218-8.219 8.22 8.219 2.054-2.055-8.219-8.219 8.22-8.219z" fill="currentColor" /></symbol><symbol fill="none" viewBox="0 0 104 40" id="logo"><path d="M4.16 3.94l3.55 9 3.57-9h4.16l-6.21 14.7h-3L0 3.94h4.16zm23.9 3.76a4.719 4.719 0 0 0-1.25-.7 3.32 3.32 0 0 0-1.21-.24 2 2 0 0 0-1.21.35 1.09 1.09 0 0 0-.47.92.91.91 0 0 0 .23.64 2 2 0 0 0 .61.44c.277.132.565.239.86.32l.95.29a5.9 5.9 0 0 1 2.74 1.67 4.11 4.11 0 0 1 .87 2.72 5.29 5.29 0 0 1-.38 2 4.27 4.27 0 0 1-1.11 1.57 5.128 5.128 0 0 1-1.8 1 7.482 7.482 0 0 1-2.41.36 8.87 8.87 0 0 1-5.17-1.66L21 14.31a6.65 6.65 0 0 0 1.7 1.13 4.079 4.079 0 0 0 1.66.37 2 2 0 0 0 1.4-.43 1.33 1.33 0 0 0 .24-1.54 1.25 1.25 0 0 0-.39-.45 3.132 3.132 0 0 0-.71-.38l-1.06-.39a17.821 17.821 0 0 1-1.45-.52 4.577 4.577 0 0 1-1.27-.75 3.49 3.49 0 0 1-.9-1.18 4.17 4.17 0 0 1-.34-1.8 5.21 5.21 0 0 1 .36-2 4.4 4.4 0 0 1 1-1.52 4.52 4.52 0 0 1 1.6-1A6.05 6.05 0 0 1 25 3.53a9.27 9.27 0 0 1 2.28.3 10.07 10.07 0 0 1 2.28.89l-1.5 2.98zm16.43-.53h-4.55v2.46h4.29v3.24h-4.29v2.53h4.55v3.24h-8.37V3.94h8.37v3.23zM5.37 31.12h1.26c1.407 0 2.11-.61 2.11-1.83 0-1.22-.703-1.833-2.11-1.84H5.37v3.67zm0 8H1.54V24.37h6.09a5.21 5.21 0 0 1 3.8 1.29 4.84 4.84 0 0 1 1.32 3.63 4.84 4.84 0 0 1-1.32 3.63 5.211 5.211 0 0 1-3.8 1.29H5.37v4.91zm16.27-7.35a3.92 3.92 0 0 0 .36 1.57 4 4 0 0 0 2.21 2.14 4.34 4.34 0 0 0 3.18 0 4.17 4.17 0 0 0 1.33-.85 4 4 0 0 0 .91-1.29 4.11 4.11 0 0 0 0-3.24 4 4 0 0 0-.91-1.29 4.17 4.17 0 0 0-1.35-.81 4.34 4.34 0 0 0-3.18 0A4 4 0 0 0 22 30.1a3.92 3.92 0 0 0-.36 1.62v.05zm-4 0a7.58 7.58 0 0 1 4.85-7.17 9.36 9.36 0 0 1 6.57 0 7.75 7.75 0 0 1 2.59 1.65 7.54 7.54 0 0 1 1.69 2.47 8 8 0 0 1 0 6.1 7.54 7.54 0 0 1-1.69 2.47 7.749 7.749 0 0 1-2.59 1.65 9.36 9.36 0 0 1-6.57 0 7.6 7.6 0 0 1-4.85-7.17zm26.07-.78h.72a2.79 2.79 0 0 0 1.74-.47 1.8 1.8 0 0 0 0-2.69 2.79 2.79 0 0 0-1.74-.47h-.72v3.63zm8.41 8.13h-4.76l-3.65-5.66v5.66h-3.83V24.37h6a5.85 5.85 0 0 1 2.15.36 3.999 3.999 0 0 1 2.41 2.43 5 5 0 0 1 .3 1.75 4.31 4.31 0 0 1-.81 2.72A4.08 4.08 0 0 1 47.49 33l4.63 6.12zm8.19-7.35a3.92 3.92 0 0 0 .33 1.62 4 4 0 0 0 2.21 2.14 4.33 4.33 0 0 0 3.18 0 4.17 4.17 0 0 0 1.33-.85 4 4 0 0 0 .91-1.29 4.11 4.11 0 0 0 0-3.24 4 4 0 0 0-.91-1.29 4.33 4.33 0 0 0-4.54-.86 4.001 4.001 0 0 0-2.21 2.14 3.92 3.92 0 0 0-.3 1.58v.05zm-4 0a7.58 7.58 0 0 1 4.85-7.17 9.36 9.36 0 0 1 6.57 0 7.75 7.75 0 0 1 2.59 1.65A7.54 7.54 0 0 1 72 28.67a8 8 0 0 1 0 6.1 7.54 7.54 0 0 1-1.69 2.47 7.748 7.748 0 0 1-2.59 1.65 9.36 9.36 0 0 1-6.57 0 7.6 7.6 0 0 1-4.85-7.17l.01.05zm29.41-.88h7.59a21.04 21.04 0 0 1-.1 2.13 7.53 7.53 0 0 1-.39 1.77 7.078 7.078 0 0 1-1.11 2 6.498 6.498 0 0 1-1.65 1.48 7.751 7.751 0 0 1-2.08.91 8.917 8.917 0 0 1-2.38.31 8.368 8.368 0 0 1-3.13-.57A7.069 7.069 0 0 1 80 37.33a7.2 7.2 0 0 1-1.58-2.46 9.17 9.17 0 0 1 0-6.32A6.91 6.91 0 0 1 80 26.1a7.18 7.18 0 0 1 2.47-1.58 8.76 8.76 0 0 1 3.25-.52 8 8 0 0 1 4 1 6.89 6.89 0 0 1 2.79 3l-3.63 1.5a3.69 3.69 0 0 0-1.32-1.74 3.31 3.31 0 0 0-1.84-.53 3.7 3.7 0 0 0-1.56.32 3.38 3.38 0 0 0-1.2.92 4.4 4.4 0 0 0-.78 1.43 5.83 5.83 0 0 0-.28 1.87 5.918 5.918 0 0 0 .24 1.74c.148.504.397.974.73 1.38a3.3 3.3 0 0 0 1.21.91 4.09 4.09 0 0 0 1.68.32 4.66 4.66 0 0 0 1.09-.12 2.88 2.88 0 0 0 .95-.41c.28-.19.516-.44.69-.73a2.92 2.92 0 0 0 .37-1.09h-3.14v-2.88zm17.37-6.47v14.7h-3.83V24.37l3.83.05zm-51.98-5.58v-6l.05-.2c.15-.55 1.81-5.41 13.13-5.41 3 0 4.94-1.52 6.78-3 1.64-1.31 3.34-2.66 5.65-2.66h13.16l5.75 3.92h8v10.38l-.68.64c-.28.22-2.77 2.34-5.59 2.34v-3a3.89 3.89 0 0 0 3.11-1.53V8.59h-5.83l-5.75-3.92H76.72c-1.19 0-2.28.87-3.66 2-2 1.64-4.6 3.68-8.77 3.68-7.78 0-9.71 2.48-10 3v2.52H55v3l-3.89-.03z" fill="currentColor" /><path d="M60.48 21.19a4.34 4.34 0 1 1 4.44-4.34 4.4 4.4 0 0 1-4.44 4.34zm0-5.6a1.27 1.27 0 1 0 1.3 1.27 1.28 1.28 0 0 0-1.3-1.27zm31.4 5.6a4.34 4.34 0 1 1 4.44-4.34 4.389 4.389 0 0 1-4.44 4.34zm0-5.6a1.27 1.27 0 1 0 1.3 1.27 1.28 1.28 0 0 0-1.3-1.27z" fill="currentColor" /><path d="M65.68 15.85h20.67v2.99H65.68v-2.99z" fill="#CC262A" /></symbol><symbol fill="none" viewBox="0 0 48 50" id="mail"><path d="M15.715 15.891c0-.72.584-1.304 1.304-1.304h13.962a1.305 1.305 0 0 1 0 2.609H17.019c-.72 0-1.304-.584-1.304-1.305zm1.304 6.553h13.962a1.304 1.304 0 1 0 0-2.608H17.019a1.304 1.304 0 0 0 0 2.608zm10.858 3.95c0-.72-.584-1.304-1.305-1.304H17.02a1.304 1.304 0 0 0 0 2.608h9.558c.72 0 1.305-.584 1.305-1.304h-.006zM23.155.307l-5.218 4.424a1.305 1.305 0 0 0 1.686 1.993L24 3.02l4.393 3.71a1.305 1.305 0 1 0 1.685-1.993L24.861.312a1.304 1.304 0 0 0-1.701.007l-.005-.01V.307zm24.38 19.174c.295.248.465.612.465.997v24.641a4.607 4.607 0 0 1-4.602 4.602H4.602A4.608 4.608 0 0 1 0 45.12v-24.64c0-.385.17-.75.464-.997l4.916-4.123a1.305 1.305 0 0 1 1.685 1.993L3.413 20.42l5.645 3.991V11.89a3.344 3.344 0 0 1 3.345-3.345h23.212a3.344 3.344 0 0 1 3.344 3.345v12.521l5.65-3.996-3.62-3.057a1.304 1.304 0 0 1 1.24-2.24c.163.052.314.135.445.246l4.863 4.117h-.002zM11.65 26.264L24 34.998l12.35-8.734V11.911a.736.736 0 0 0-.736-.736H12.386a.736.736 0 0 0-.736.736v14.353zm33.741-3.205L30.652 33.495l10.565 8.066a1.304 1.304 0 1 1-1.565 2.087L28.42 35.065l-3.652 2.609c-.452.32-1.056.32-1.508 0l-3.652-2.609-11.229 8.584a1.305 1.305 0 0 1-1.565-2.087l10.534-8.077-14.74-10.424v22.06a1.998 1.998 0 0 0 1.994 1.992h38.796a1.998 1.998 0 0 0 1.993-1.993V23.059z" fill="#CC262A" /></symbol><symbol fill="none" viewBox="0 0 32 28" id="menu"><path fill-rule="evenodd" clip-rule="evenodd" d="M0 0h32v6H0V0zm0 11h32v6H0v-6zm32 11H0v6h32v-6z" fill="currentColor" /></symbol><symbol fill="none" viewBox="0 0 44 40" id="why_01"><path d="M19.854 2.322l-4.882 9.825-10.923 1.58c-1.96.283-2.744 2.68-1.324 4.053l7.903 7.643-1.87 10.798c-.336 1.952 1.736 3.413 3.47 2.5L22 33.625l9.772 5.098c1.735.905 3.806-.55 3.47-2.501l-1.87-10.798 7.903-7.643c1.42-1.373.635-3.77-1.324-4.052l-10.923-1.58-4.882-9.826c-.875-1.751-3.41-1.774-4.292 0z" fill="#CC262A" stroke="#000" stroke-width="2" stroke-linecap="round" stroke-linejoin="round" /></symbol><symbol fill="none" viewBox="0 0 32 40" id="why_02"><g stroke-linejoin="round" stroke-width="2"><path d="m16 38.5s15-7.5 15-18.75v-15l-15-3.75-15 3.75v15c0 11.25 15 18.75 15 18.75z" fill="#cc262a" stroke="#000" stroke-linecap="round" /><path d="m8.5 17 6 6.5 10-11.5" stroke="#fff" /></g></symbol><symbol fill="none" viewBox="0 0 83 40" id="why_03"><path fill-rule="evenodd" clip-rule="evenodd" d="M0 35.67v-9.642l.085-.318c.24-.887 2.858-8.665 20.675-8.665 4.802 0 7.785-2.427 10.671-4.774h.001C34.014 10.171 36.684 8 40.33 8h20.715l9.046 6.276h12.6v16.64l-1.067 1.029-.084.068c-.726.596-4.484 3.679-8.718 3.679v-4.811c2.522 0 3.665-1.18 4.508-2.053.137-.142.267-.276.393-.395v-9.19h-9.185l-9.047-6.276h-19.16c-1.881 0-3.595 1.393-5.765 3.157-3.225 2.624-7.239 5.888-13.806 5.888-12.247 0-15.282 3.966-15.793 4.83v4.039h1.21v4.789H0zm14.763 3.765c-3.857 0-6.996-3.115-6.996-6.944 0-3.83 3.138-6.946 6.996-6.946 3.858 0 6.996 3.116 6.996 6.946 0 3.829-3.138 6.944-6.996 6.944zm0-8.97c-1.126 0-2.042.91-2.042 2.027s.915 2.026 2.042 2.026a2.036 2.036 0 0 0 2.042-2.026 2.037 2.037 0 0 0-2.042-2.028v.001zm49.44 8.97c-3.857 0-6.995-3.115-6.995-6.944 0-3.83 3.138-6.946 6.995-6.946 3.858 0 6.997 3.115 6.997 6.946-.001 3.829-3.14 6.944-6.997 6.944zm0-8.97c-1.126 0-2.041.91-2.041 2.027s.915 2.026 2.04 2.026a2.037 2.037 0 0 0 2.044-2.026 2.037 2.037 0 0 0-2.043-2.028v.001zm-8.72.416H22.94v4.789h32.543v-4.789z" fill="#CC262A" /><path d="M56.9 3.118c-2.8-2.824-7.42-2.824-10.22 0L45 4.812l-1.68-1.694c-2.8-2.824-7.42-2.824-10.22 0a7.2 7.2 0 0 0 0 10.164l1.68 1.694L45 25l10.22-10.165 1.68-1.694c2.8-2.682 2.8-7.2 0-10.023z" fill="#CC262A" stroke="#000" stroke-width="2" stroke-linecap="round" stroke-linejoin="round" /></symbol></defs><use id="advantages_01-usage" xlink:href="#advantages_01" class="sprite-symbol-usage" /><use id="advantages_02-usage" xlink:href="#advantages_02" class="sprite-symbol-usage" /><use id="advantages_03-usage" xlink:href="#advantages_03" class="sprite-symbol-usage" /><use id="advantages_04-usage" xlink:href="#advantages_04" class="sprite-symbol-usage" /><use id="advantages_05-usage" xlink:href="#advantages_05" class="sprite-symbol-usage" /><use id="advantages_06-usage" xlink:href="#advantages_06" class="sprite-symbol-usage" /><use id="arrow-usage" xlink:href="#arrow" class="sprite-symbol-usage" /><use id="call-usage" xlink:href="#call" class="sprite-symbol-usage" /><use id="callback-usage" xlink:href="#callback" class="sprite-symbol-usage" /><use id="check-usage" xlink:href="#check" class="sprite-symbol-usage" /><use id="close-usage" xlink:href="#close" class="sprite-symbol-usage" /><use id="logo-usage" xlink:href="#logo" class="sprite-symbol-usage" /><use id="mail-usage" xlink:href="#mail" class="sprite-symbol-usage" /><use id="menu-usage" xlink:href="#menu" class="sprite-symbol-usage" /><use id="why_01-usage" xlink:href="#why_01" class="sprite-symbol-usage" /><use id="why_02-usage" xlink:href="#why_02" class="sprite-symbol-usage" /><use id="why_03-usage" xlink:href="#why_03" class="sprite-symbol-usage" /></svg>