<svg width="40" height="45" fill="none" xmlns="http://www.w3.org/2000/svg"><path d="M20 38.653c1.282 0 2.534-.129 3.751-.352l8.127 6.284V34.85C36.797 31.33 40 25.698 40 19.327 40 8.651 31.045 0 20 0S0 8.652 0 19.326C0 30 8.955 38.654 20 38.654zm0-35.866c9.476 0 17.184 7.418 17.184 16.54 0 5.264-2.535 10.1-6.955 13.264l-1.166.834v5.449l-3.579-2.77-1-.771-1.247.228a18.01 18.01 0 0 1-3.237.306c-9.476 0-17.184-7.42-17.184-16.54 0-9.122 7.708-16.54 17.184-16.54z" fill="#CC262A"/><path d="M29.224 12.918l-2.312-1.589-8.701 12.4-5.52-4.459-1.784 2.158 7.88 6.364 10.437-14.874z" fill="#CC262A"/></svg>