<svg width="48" height="35" fill="none" xmlns="http://www.w3.org/2000/svg"><path d="M22.795 4.921c0-3.113-5.725-4.507-11.398-4.507S0 1.804 0 4.921v2.777c0 3.114 5.724 4.507 11.397 4.507s11.398-1.393 11.398-4.507V4.921zM20.24 7.658c-.296.587-3.278 1.996-8.844 1.996-5.566 0-8.563-1.409-8.844-1.996v-2.7c.296-.587 3.278-1.996 8.844-1.996 5.566 0 8.548 1.41 8.844 1.996v2.7zm2.554 7.565c0 3.113-5.725 4.507-11.398 4.507S0 18.335 0 15.222v-2.318a1.277 1.277 0 1 1 2.553 0v2.277c.28.587 3.273 1.996 8.844 1.996s8.548-1.41 8.844-1.996v-2.277a1.277 1.277 0 1 1 2.554 0v2.318l-.001.001zm0 7.523c0 3.114-5.725 4.507-11.398 4.507S0 25.86 0 22.74v-2.312a1.277 1.277 0 1 1 2.553 0v2.276c.28.582 3.273 1.976 8.844 1.976s8.548-1.41 8.844-1.996v-2.256a1.277 1.277 0 1 1 2.554 0v2.317l-.001.001zM47.54 12.43c0-3.114-5.724-4.507-11.397-4.507S24.745 9.326 24.745 12.43v2.776c0 3.114 5.725 4.507 11.398 4.507S47.54 18.32 47.54 15.206V12.43zm-2.553 2.735c-.28.603-3.273 2.012-8.844 2.012s-8.548-1.41-8.844-1.996v-2.7c.296-.587 3.278-1.996 8.844-1.996 5.566 0 8.563 1.434 8.844 1.996v2.684zm2.553 7.565c0 3.113-5.724 4.507-11.397 4.507S24.745 25.86 24.745 22.74v-2.312a1.277 1.277 0 1 1 2.554 0v2.276c.296.582 3.278 1.976 8.844 1.976 5.566 0 8.563-1.394 8.844-1.976v-2.276a1.277 1.277 0 1 1 2.553 0v2.302zM27.3 27.946v2.277c.296.587 3.278 1.996 8.844 1.996 5.566 0 8.563-1.414 8.844-1.996v-2.277a1.277 1.277 0 1 1 2.553 0v2.318c0 3.113-5.724 4.507-11.397 4.507s-11.398-1.414-11.398-4.507v-2.318a1.277 1.277 0 1 1 2.554 0zm-15.902 6.825C5.724 34.771 0 33.357 0 30.264v-2.318a1.277 1.277 0 1 1 2.553 0v2.277c.28.582 3.273 1.996 8.844 1.996s8.548-1.414 8.844-1.996v-2.277a1.277 1.277 0 1 1 2.554 0v2.318c0 3.093-5.725 4.507-11.398 4.507h.001z" fill="#CC262A"/></svg>