<svg width="43" height="46" fill="none" xmlns="http://www.w3.org/2000/svg"><path d="M43 10.844a1.17 1.17 0 0 0-.274-.73 1.202 1.202 0 0 0-.676-.405L21.99.127a1.136 1.136 0 0 0-1.043 0L.67 9.8c-.196.091-.363.234-.481.413a1.137 1.137 0 0 0-.189.6v24.331c0 .218.062.432.18.617.12.185.289.332.49.425l20.246 9.69h.888V46h.093l20.355-9.705c.2-.099.368-.25.486-.436.118-.187.182-.402.184-.622V10.874l.078-.03zM21.508 2.457l17.598 8.402-6.478 3.066-17.646-8.37 6.526-3.098zm0 16.865L3.878 10.86l8.394-4.017 17.6 8.402-8.364 4.078zM2.368 12.73l17.878 8.555v21.649L2.367 34.409v-21.68zm20.245 30.204v-21.65l8.41-4.016v5.734c0 .31.125.606.347.824a1.193 1.193 0 0 0 1.674 0c.222-.218.347-.515.347-.824v-6.869L40.6 12.7v21.68l-17.988 8.555z" fill="#CC262A"/></svg>