<svg width="33" height="49" fill="none" xmlns="http://www.w3.org/2000/svg"><path d="M16.5 0a4.415 4.415 0 0 0-4.4 4.4v1.1H8.387A2.36 2.36 0 0 0 6.05 7.838V8.8H1.1C.501 8.8 0 9.404 0 9.9v37.4c0 .576.524 1.1 1.1 1.1h30.8c.576 0 1.1-.524 1.1-1.1V9.9c0-.576-.524-1.1-1.1-1.1h-4.95v-.963A2.36 2.36 0 0 0 24.613 5.5H20.9V4.4c0-2.419-1.981-4.4-4.4-4.4zm0 2.2c1.238 0 2.2.962 2.2 2.2v2.2c0 .576.524 1.1 1.1 1.1h4.813c.1 0 .137.037.137.138v4.125c0 .1-.037.137-.137.137H8.387c-.1 0-.137-.037-.137-.137V7.838c0-.101.037-.138.137-.138H13.2c.576 0 1.1-.524 1.1-1.1V4.4c0-1.238.962-2.2 2.2-2.2zM2.2 11h3.85v.963A2.36 2.36 0 0 0 8.387 14.3h16.226a2.36 2.36 0 0 0 2.337-2.338V11h3.85v35.2H2.2V11zm3.3 8.8c.019.576.523 1.1 1.1 1.1h19.8c.581.008 1.116-.519 1.116-1.1 0-.581-.535-1.108-1.116-1.1H6.6c-.633 0-1.117.59-1.1 1.1zm0 6.6c.019.576.523 1.1 1.1 1.1h19.8c.581.008 1.116-.519 1.116-1.1 0-.581-.535-1.108-1.116-1.1H6.6c-.633 0-1.117.59-1.1 1.1zm19.99 5.431l-4.693 7.03-1.805-2.166a1.022 1.022 0 0 0-.842-.395c-.779.008-1.1.584-1.1 1.1 0 .259.08.516.258.705l2.75 3.3a1.101 1.101 0 0 0 .842.395c.353-.007.714-.203.91-.498l5.5-8.25c.121-.173.194-.381.192-.592-.004-.722-.531-1.11-1.102-1.11-.4 0-.742.228-.91.481zM5.5 33c.018.576.523 1.1 1.1 1.1h8.8c.581.008 1.116-.519 1.116-1.1 0-.581-.535-1.108-1.116-1.1H6.6c-.638 0-1.116.574-1.1 1.1z" fill="#CC262A"/></svg>