<svg width="51" height="51" fill="none" xmlns="http://www.w3.org/2000/svg"><path d="M49.424 19.636H19.799a.832.832 0 0 0-.834.827v1.116H1.84a.854.854 0 0 0-.791.537c-.125.33 0 .702.25.909l2 1.611c2.333 1.943 4.958 3.389 7.75 4.38a25.821 25.821 0 0 0 8.666 1.488c2.084.248 3.667 2.066 3.667 4.174v1.24c0 1.61-.792 3.099-2.125 4.008l-8.125 5.537-.042.041c-.041.041-.083.041-.083.083l-.042.041c0 .041-.041.041-.041.083 0 .041-.042.041-.042.082 0 .042-.042.042-.042.083s0 .041-.041.083c0 .041 0 .041-.042.082v3.761c0 .454.375.826.833.826h33.875a.832.832 0 0 0 .834-.826v-3.595a.81.81 0 0 0-.375-.703l-8.125-5.537a4.835 4.835 0 0 1-2.125-4.008c0-4.752 3.041-8.926 7.583-10.33l4.417-1.365c.333-.124.583-.413.583-.785v-3.016a.832.832 0 0 0-.833-.827zm-.834 3.224l-3.833 1.198c-5.25 1.611-8.75 6.405-8.75 11.9 0 2.15 1.083 4.133 2.833 5.373l7.792 5.289v2.355H14.424v-1.942h24.833a.832.832 0 0 0 .833-.826.832.832 0 0 0-.833-.827H16.299l5.916-4.008c1.792-1.198 2.834-3.223 2.834-5.372v-1.24c0-2.975-2.209-5.496-5.167-5.826h-.083c-2.792 0-5.542-.455-8.167-1.405s-5.083-2.314-7.25-4.091l-.208-.165h14.791v2.396a.833.833 0 0 0 1.667 0v-4.38H48.59v1.571zm-27.5-5.496h6.417c1.167 0 2.125-.95 2.125-2.108v-5.248h19.833a.832.832 0 0 0 .834-.826.832.832 0 0 0-.834-.827H29.59V3.107C29.59 1.95 28.632 1 27.465 1H21.09c-1.166 0-2.125.95-2.125 2.107v12.19c0 1.116.959 2.067 2.125 2.067zm-.458-14.257a.46.46 0 0 1 .458-.454h6.417a.46.46 0 0 1 .458.454v12.19a.46.46 0 0 1-.458.455H21.09a.46.46 0 0 1-.458-.454V3.107z" fill="#CC262A" stroke="#CC262A" stroke-width=".5"/></svg>