<svg width="33" height="36" fill="none" xmlns="http://www.w3.org/2000/svg"><path d="M32.46 11.96C30.155 3.378 21.13-1.713 12.302.529 3.473 2.808-1.761 11.58.543 20.126c1.095 4.063 3.712 7.329 7.07 9.418L3.278 36l17.424-4.443c8.788-2.24 14.063-11.014 11.758-19.596h-.001zM18.396 23.316c-6.836-3.268-8.595-9.115-8.868-11.28-.273-2.126 3.555-4.026 3.555-4.026l2.422 3.95s-2.578 1.329-2.227 2.088c1.876 3.912 4.377 5.318 4.377 5.318.781.303 2.577-1.634 2.577-1.634l3.438 3.153s-2.852 3.569-5.274 2.43z" fill="#CC262A"/></svg>