<svg width="52" height="52" fill="none" xmlns="http://www.w3.org/2000/svg"><path d="M31.87 40.867l-4.833-3.717c-1.54-1.169-3.718-1.01-5.098.318l-2.019 2.018a10.374 10.374 0 0 1-4.195-2.07l-.16-.16c-.478-.372-.902-.85-1.327-1.328l-.16-.16c-1.009-1.22-1.752-2.655-2.07-4.195l2.017-2.018c1.381-1.38 1.54-3.559.32-5.099l-3.719-4.833c-1.168-1.487-3.133-2.018-4.886-1.274l-.53.265C2.13 19.995.056 23.13.003 26.53c-.106 5.79 1.86 11.418 5.577 15.826l.265.266c.903 1.115 1.965 2.124 3.027 3.027l.266.266a23.823 23.823 0 0 0 15.35 5.576h.477c3.4-.053 6.48-2.124 7.86-5.258l.266-.53c.796-1.7.265-3.718-1.222-4.834zm-1.168 3.771l-.266.531c-.956 2.178-3.133 3.612-5.523 3.665-5.152.106-10.144-1.647-14.074-4.993l-.266-.265c-.956-.85-1.912-1.753-2.709-2.709l-.212-.212c-3.293-3.93-5.099-8.923-4.94-14.074.054-2.39 1.488-4.568 3.665-5.524l.531-.265c.16-.107.372-.107.585-.107.425 0 .85.213 1.115.585l3.718 4.833a1.214 1.214 0 0 1-.107 1.593l-2.496 2.496c-.318.32-.425.744-.372 1.17a12.656 12.656 0 0 0 2.815 6.106l.16.16c.478.584 1.062 1.115 1.646 1.646l.16.16a12.654 12.654 0 0 0 6.107 2.814c.425.053.85-.053 1.168-.372l2.497-2.496a1.214 1.214 0 0 1 1.593-.106l4.833 3.718c.478.371.637 1.062.372 1.646zM46.688 4.86c-6.48-6.479-16.995-6.479-23.475 0-5.258 5.258-6.373 13.278-2.815 19.704l-1.274 4.462c-.266.956 0 2.018.69 2.708.69.69 1.753.956 2.71.69l4.46-1.274a16.508 16.508 0 0 0 7.967 2.071c4.302 0 8.55-1.646 11.737-4.886 6.426-6.48 6.426-16.995 0-23.474zm-1.912 21.616C40.262 30.99 33.251 31.84 27.781 28.6c-.213-.106-.425-.213-.69-.213-.107 0-.266 0-.372.054l-4.993 1.433h-.106c-.053-.053-.053-.053 0-.106l1.434-4.992a1.251 1.251 0 0 0-.16-1.062c-3.292-5.47-2.39-12.48 2.125-16.996 5.47-5.364 14.34-5.364 19.757.054 5.417 5.417 5.417 14.286 0 19.703v.001zm-8.498-9.878c0 .743-.584 1.328-1.327 1.328a1.316 1.316 0 0 1-1.328-1.328c0-.744.584-1.328 1.328-1.328.743 0 1.327.638 1.327 1.328zm-5.15 0c0 .743-.586 1.328-1.329 1.328a1.316 1.316 0 0 1-1.328-1.328c0-.744.584-1.328 1.328-1.328.743 0 1.328.638 1.328 1.328zm10.25 0c0 .743-.585 1.328-1.329 1.328a1.316 1.316 0 0 1-1.328-1.328c0-.744.585-1.328 1.328-1.328.744 0 1.328.638 1.328 1.328z" fill="#CC262A"/></svg>