<svg width="104" height="40" fill="none" xmlns="http://www.w3.org/2000/svg"><path d="M4.16 3.94l3.55 9 3.57-9h4.16l-6.21 14.7h-3L0 3.94h4.16zm23.9 3.76a4.719 4.719 0 0 0-1.25-.7 3.32 3.32 0 0 0-1.21-.24 2 2 0 0 0-1.21.35 1.09 1.09 0 0 0-.47.92.91.91 0 0 0 .23.64 2 2 0 0 0 .61.44c.277.132.565.239.86.32l.95.29a5.9 5.9 0 0 1 2.74 1.67 4.11 4.11 0 0 1 .87 2.72 5.29 5.29 0 0 1-.38 2 4.27 4.27 0 0 1-1.11 1.57 5.128 5.128 0 0 1-1.8 1 7.482 7.482 0 0 1-2.41.36 8.87 8.87 0 0 1-5.17-1.66L21 14.31a6.65 6.65 0 0 0 1.7 1.13 4.079 4.079 0 0 0 1.66.37 2 2 0 0 0 1.4-.43 1.33 1.33 0 0 0 .24-1.54 1.25 1.25 0 0 0-.39-.45 3.132 3.132 0 0 0-.71-.38l-1.06-.39a17.821 17.821 0 0 1-1.45-.52 4.577 4.577 0 0 1-1.27-.75 3.49 3.49 0 0 1-.9-1.18 4.17 4.17 0 0 1-.34-1.8 5.21 5.21 0 0 1 .36-2 4.4 4.4 0 0 1 1-1.52 4.52 4.52 0 0 1 1.6-1A6.05 6.05 0 0 1 25 3.53a9.27 9.27 0 0 1 2.28.3 10.07 10.07 0 0 1 2.28.89l-1.5 2.98zm16.43-.53h-4.55v2.46h4.29v3.24h-4.29v2.53h4.55v3.24h-8.37V3.94h8.37v3.23zM5.37 31.12h1.26c1.407 0 2.11-.61 2.11-1.83 0-1.22-.703-1.833-2.11-1.84H5.37v3.67zm0 8H1.54V24.37h6.09a5.21 5.21 0 0 1 3.8 1.29 4.84 4.84 0 0 1 1.32 3.63 4.84 4.84 0 0 1-1.32 3.63 5.211 5.211 0 0 1-3.8 1.29H5.37v4.91zm16.27-7.35a3.92 3.92 0 0 0 .36 1.57 4 4 0 0 0 2.21 2.14 4.34 4.34 0 0 0 3.18 0 4.17 4.17 0 0 0 1.33-.85 4 4 0 0 0 .91-1.29 4.11 4.11 0 0 0 0-3.24 4 4 0 0 0-.91-1.29 4.17 4.17 0 0 0-1.35-.81 4.34 4.34 0 0 0-3.18 0A4 4 0 0 0 22 30.1a3.92 3.92 0 0 0-.36 1.62v.05zm-4 0a7.58 7.58 0 0 1 4.85-7.17 9.36 9.36 0 0 1 6.57 0 7.75 7.75 0 0 1 2.59 1.65 7.54 7.54 0 0 1 1.69 2.47 8 8 0 0 1 0 6.1 7.54 7.54 0 0 1-1.69 2.47 7.749 7.749 0 0 1-2.59 1.65 9.36 9.36 0 0 1-6.57 0 7.6 7.6 0 0 1-4.85-7.17zm26.07-.78h.72a2.79 2.79 0 0 0 1.74-.47 1.8 1.8 0 0 0 0-2.69 2.79 2.79 0 0 0-1.74-.47h-.72v3.63zm8.41 8.13h-4.76l-3.65-5.66v5.66h-3.83V24.37h6a5.85 5.85 0 0 1 2.15.36 3.999 3.999 0 0 1 2.41 2.43 5 5 0 0 1 .3 1.75 4.31 4.31 0 0 1-.81 2.72A4.08 4.08 0 0 1 47.49 33l4.63 6.12zm8.19-7.35a3.92 3.92 0 0 0 .33 1.62 4 4 0 0 0 2.21 2.14 4.33 4.33 0 0 0 3.18 0 4.17 4.17 0 0 0 1.33-.85 4 4 0 0 0 .91-1.29 4.11 4.11 0 0 0 0-3.24 4 4 0 0 0-.91-1.29 4.33 4.33 0 0 0-4.54-.86 4.001 4.001 0 0 0-2.21 2.14 3.92 3.92 0 0 0-.3 1.58v.05zm-4 0a7.58 7.58 0 0 1 4.85-7.17 9.36 9.36 0 0 1 6.57 0 7.75 7.75 0 0 1 2.59 1.65A7.54 7.54 0 0 1 72 28.67a8 8 0 0 1 0 6.1 7.54 7.54 0 0 1-1.69 2.47 7.748 7.748 0 0 1-2.59 1.65 9.36 9.36 0 0 1-6.57 0 7.6 7.6 0 0 1-4.85-7.17l.01.05zm29.41-.88h7.59a21.04 21.04 0 0 1-.1 2.13 7.53 7.53 0 0 1-.39 1.77 7.078 7.078 0 0 1-1.11 2 6.498 6.498 0 0 1-1.65 1.48 7.751 7.751 0 0 1-2.08.91 8.917 8.917 0 0 1-2.38.31 8.368 8.368 0 0 1-3.13-.57A7.069 7.069 0 0 1 80 37.33a7.2 7.2 0 0 1-1.58-2.46 9.17 9.17 0 0 1 0-6.32A6.91 6.91 0 0 1 80 26.1a7.18 7.18 0 0 1 2.47-1.58 8.76 8.76 0 0 1 3.25-.52 8 8 0 0 1 4 1 6.89 6.89 0 0 1 2.79 3l-3.63 1.5a3.69 3.69 0 0 0-1.32-1.74 3.31 3.31 0 0 0-1.84-.53 3.7 3.7 0 0 0-1.56.32 3.38 3.38 0 0 0-1.2.92 4.4 4.4 0 0 0-.78 1.43 5.83 5.83 0 0 0-.28 1.87 5.918 5.918 0 0 0 .24 1.74c.148.504.397.974.73 1.38a3.3 3.3 0 0 0 1.21.91 4.09 4.09 0 0 0 1.68.32 4.66 4.66 0 0 0 1.09-.12 2.88 2.88 0 0 0 .95-.41c.28-.19.516-.44.69-.73a2.92 2.92 0 0 0 .37-1.09h-3.14v-2.88zm17.37-6.47v14.7h-3.83V24.37l3.83.05zm-51.98-5.58v-6l.05-.2c.15-.55 1.81-5.41 13.13-5.41 3 0 4.94-1.52 6.78-3 1.64-1.31 3.34-2.66 5.65-2.66h13.16l5.75 3.92h8v10.38l-.68.64c-.28.22-2.77 2.34-5.59 2.34v-3a3.89 3.89 0 0 0 3.11-1.53V8.59h-5.83l-5.75-3.92H76.72c-1.19 0-2.28.87-3.66 2-2 1.64-4.6 3.68-8.77 3.68-7.78 0-9.71 2.48-10 3v2.52H55v3l-3.89-.03z" fill="currentColor"/><path d="M60.48 21.19a4.34 4.34 0 1 1 4.44-4.34 4.4 4.4 0 0 1-4.44 4.34zm0-5.6a1.27 1.27 0 1 0 1.3 1.27 1.28 1.28 0 0 0-1.3-1.27zm31.4 5.6a4.34 4.34 0 1 1 4.44-4.34 4.389 4.389 0 0 1-4.44 4.34zm0-5.6a1.27 1.27 0 1 0 1.3 1.27 1.28 1.28 0 0 0-1.3-1.27z" fill="currentColor"/><path d="M65.68 15.85h20.67v2.99H65.68v-2.99z" fill="#CC262A"/></svg>
