<svg width="48" height="50" fill="none" xmlns="http://www.w3.org/2000/svg"><path d="M15.715 15.891c0-.72.584-1.304 1.304-1.304h13.962a1.305 1.305 0 0 1 0 2.609H17.019c-.72 0-1.304-.584-1.304-1.305zm1.304 6.553h13.962a1.304 1.304 0 1 0 0-2.608H17.019a1.304 1.304 0 0 0 0 2.608zm10.858 3.95c0-.72-.584-1.304-1.305-1.304H17.02a1.304 1.304 0 0 0 0 2.608h9.558c.72 0 1.305-.584 1.305-1.304h-.006zM23.155.307l-5.218 4.424a1.305 1.305 0 0 0 1.686 1.993L24 3.02l4.393 3.71a1.305 1.305 0 1 0 1.685-1.993L24.861.312a1.304 1.304 0 0 0-1.701.007l-.005-.01V.307zm24.38 19.174c.295.248.465.612.465.997v24.641a4.607 4.607 0 0 1-4.602 4.602H4.602A4.608 4.608 0 0 1 0 45.12v-24.64c0-.385.17-.75.464-.997l4.916-4.123a1.305 1.305 0 0 1 1.685 1.993L3.413 20.42l5.645 3.991V11.89a3.344 3.344 0 0 1 3.345-3.345h23.212a3.344 3.344 0 0 1 3.344 3.345v12.521l5.65-3.996-3.62-3.057a1.304 1.304 0 0 1 1.24-2.24c.163.052.314.135.445.246l4.863 4.117h-.002zM11.65 26.264L24 34.998l12.35-8.734V11.911a.736.736 0 0 0-.736-.736H12.386a.736.736 0 0 0-.736.736v14.353zm33.741-3.205L30.652 33.495l10.565 8.066a1.304 1.304 0 1 1-1.565 2.087L28.42 35.065l-3.652 2.609c-.452.32-1.056.32-1.508 0l-3.652-2.609-11.229 8.584a1.305 1.305 0 0 1-1.565-2.087l10.534-8.077-14.74-10.424v22.06a1.998 1.998 0 0 0 1.994 1.992h38.796a1.998 1.998 0 0 0 1.993-1.993V23.059z" fill="#CC262A"/></svg>