<svg width="55" height="39" xmlns="http://www.w3.org/2000/svg"><g fill="none"><path d="M27.577 38.577c-5.886.033-11.773-.044-17.648-.364-1.91-.11-3.822-.276-5.556-1.215-1.16-.63-2.054-1.502-2.617-2.739C.806 32.205.508 30.04.331 27.831c-.375-4.56-.397-9.122-.198-13.672.099-2.419.176-4.86.75-7.234.221-.928.542-1.834.972-2.695C2.871 2.209 4.64 1.204 6.77.784c1.79-.353 3.623-.342 5.445-.42C18.389.11 24.573-.022 30.758.044c4.76.055 9.531.177 14.291.42 1.47.077 2.949.1 4.352.618 1.9.707 3.313 1.9 4.075 3.833.74 1.855 1.027 3.777 1.182 5.754.43 5.367.441 10.735.088 16.102-.122 1.811-.243 3.623-.718 5.4-1.071 4.087-3.622 5.688-7.366 5.942-3.998.266-8.007.41-12.016.464-2.353.022-4.716 0-7.069 0zM21.78 27.28c5.345-2.927 10.625-5.82 15.992-8.758-5.378-2.949-10.658-5.831-15.992-8.758V27.28z" fill-opacity=".343" fill="#000"/><path d="M21.78 27.28V9.773c5.333 2.916 10.613 5.81 15.991 8.758-5.367 2.938-10.647 5.82-15.992 8.747z" fill="#FEFDFD"/></g></svg>