<svg width="83" height="40" fill="none" xmlns="http://www.w3.org/2000/svg"><path fill-rule="evenodd" clip-rule="evenodd" d="M0 35.67v-9.642l.085-.318c.24-.887 2.858-8.665 20.675-8.665 4.802 0 7.785-2.427 10.671-4.774h.001C34.014 10.171 36.684 8 40.33 8h20.715l9.046 6.276h12.6v16.64l-1.067 1.029-.084.068c-.726.596-4.484 3.679-8.718 3.679v-4.811c2.522 0 3.665-1.18 4.508-2.053.137-.142.267-.276.393-.395v-9.19h-9.185l-9.047-6.276h-19.16c-1.881 0-3.595 1.393-5.765 3.157-3.225 2.624-7.239 5.888-13.806 5.888-12.247 0-15.282 3.966-15.793 4.83v4.039h1.21v4.789H0zm14.763 3.765c-3.857 0-6.996-3.115-6.996-6.944 0-3.83 3.138-6.946 6.996-6.946 3.858 0 6.996 3.116 6.996 6.946 0 3.829-3.138 6.944-6.996 6.944zm0-8.97c-1.126 0-2.042.91-2.042 2.027s.915 2.026 2.042 2.026a2.036 2.036 0 0 0 2.042-2.026 2.037 2.037 0 0 0-2.042-2.028v.001zm49.44 8.97c-3.857 0-6.995-3.115-6.995-6.944 0-3.83 3.138-6.946 6.995-6.946 3.858 0 6.997 3.115 6.997 6.946-.001 3.829-3.14 6.944-6.997 6.944zm0-8.97c-1.126 0-2.041.91-2.041 2.027s.915 2.026 2.04 2.026a2.037 2.037 0 0 0 2.044-2.026 2.037 2.037 0 0 0-2.043-2.028v.001zm-8.72.416H22.94v4.789h32.543v-4.789z" fill="#CC262A"/><path d="M56.9 3.118c-2.8-2.824-7.42-2.824-10.22 0L45 4.812l-1.68-1.694c-2.8-2.824-7.42-2.824-10.22 0a7.2 7.2 0 0 0 0 10.164l1.68 1.694L45 25l10.22-10.165 1.68-1.694c2.8-2.682 2.8-7.2 0-10.023z" fill="#CC262A" stroke="#000" stroke-width="2" stroke-linecap="round" stroke-linejoin="round"/></svg>